# xmcd CD database file
#
# Track frame offsets:
#	150
#	18400
#	30702
#	51927
#	66635
#	83715
#	96252
#	107732
#	117180
#	145095
#	155720
#
# Disc length: 2319 seconds
#
# Revision: 0
# Processed by: cddbd v1.5.2PL0 Copyright (c) Steve Scherf et al.
# Submitted via: CDex 1.79
#
DISCID=96090d0b
DTITLE=Michel Legrand - The Concert Legrand
DYEAR=1900
DGENRE=Jazz
TTITLE0=Once Upon A Summertime
TTITLE1=The Saddest Thing Of All
TTITLE2=You Must Believe In Spring
TTITLE3=Wonder Where I'll Be Tomorrow
TTITLE4=Christine
TTITLE5=Sweet Gingerbread Man
TTITLE6=Happy
TTITLE7=Snowbird Serenade
TTITLE8=Fickle Fingers
TTITLE9=Petite Musique D'amour
TTITLE10=Pieces Of Dreams
EXTD=
EXTT0=
EXTT1=
EXTT2=
EXTT3=
EXTT4=
EXTT5=
EXTT6=
EXTT7=
EXTT8=
EXTT9=
EXTT10=
PLAYORDER=
